<svg width="24" height="24" viewBox="0 0 24 24" fill="none" xmlns="http://www.w3.org/2000/svg">
<path d="M21.0984 15.1258L12.6984 6.70078C12.5984 6.60078 12.4901 6.53011 12.3734 6.48878C12.2568 6.44678 12.1318 6.42578 11.9984 6.42578C11.8651 6.42578 11.7401 6.44678 11.6234 6.48878C11.5068 6.53011 11.3984 6.60078 11.2984 6.70078L2.87344 15.1258C2.6401 15.3591 2.52344 15.6508 2.52344 16.0008C2.52344 16.3508 2.64844 16.6508 2.89844 16.9008C3.14844 17.1508 3.4401 17.2758 3.77344 17.2758C4.10677 17.2758 4.39844 17.1508 4.64844 16.9008L11.9984 9.55078L19.3484 16.9008C19.5818 17.1341 19.8691 17.2508 20.2104 17.2508C20.5524 17.2508 20.8484 17.1258 21.0984 16.8758C21.3484 16.6258 21.4734 16.3341 21.4734 16.0008C21.4734 15.6674 21.3484 15.3758 21.0984 15.1258Z" fill="#222223"/>
</svg>
