<svg width="16" height="17" viewBox="0 0 16 17" fill="none" xmlns="http://www.w3.org/2000/svg">
<circle cx="8" cy="8.69995" r="8" fill="#F79A1B"/>
<path d="M7.2128 10.4096L7.0448 5H8.1984L8.0304 10.4096H7.2128ZM7.1792 12.728C7.05973 12.6085 7 12.4629 7 12.2912C7 12.1195 7.05973 11.9739 7.1792 11.8544C7.29867 11.7275 7.44427 11.664 7.616 11.664C7.78773 11.664 7.93333 11.7275 8.0528 11.8544C8.17973 11.9739 8.2432 12.1195 8.2432 12.2912C8.2432 12.4629 8.17973 12.6085 8.0528 12.728C7.93333 12.8475 7.78773 12.9072 7.616 12.9072C7.44427 12.9072 7.29867 12.8475 7.1792 12.728Z" fill="white"/>
</svg>
