<svg width="173" height="31" viewBox="0 0 173 31" fill="none" xmlns="http://www.w3.org/2000/svg">
<path d="M24.8564 9.24434C24.9168 9.24434 24.987 9.24434 25.0474 9.2519C25.9789 9.2832 26.7603 9.51524 27.3604 10.0484C27.9961 10.5816 28.3263 11.3349 28.3263 12.2912L28.3253 17.4988C28.3253 18.4248 27.9939 19.1696 27.3409 19.7265C26.7139 20.2748 25.8958 20.5575 24.8596 20.5726H12.098L12.1013 17.7621V17.3358L12.1056 12.765L6.44361 12.7672L6.44469 17.7611L6.43929 25.2061H26.3059C28.648 25.2061 30.5195 24.5239 31.9128 23.136C33.2976 21.7717 33.9851 20.1949 33.9862 18.4238L33.9873 11.4601C33.9873 10.6528 33.8567 9.89947 33.5868 9.19361C33.2469 8.28377 32.691 7.46026 31.9161 6.70799C30.5583 5.35887 28.6868 4.67676 26.3102 4.67676H4.04541L8.57306 9.25082" fill="black"/>
<path d="M45.3373 16.9397L49.4289 10.0128L58.4842 25.2071H65.0301L52.6463 4.67676H46.3777L33.9863 25.2071L40.4556 25.205L42.6401 21.5062L45.3373 16.9397Z" fill="black"/>
<path d="M41.8511 20.3967V16.8652H49.4072L51.5119 20.3967H41.8511Z" fill="black"/>
<path d="M81.7622 21.9995V17.665H85.7383V21.9995H84.9127V18.1486L85.1048 18.3472H82.3958L82.5879 18.1486V21.9995H81.7622Z" fill="black"/>
<path d="M86.9937 21.9995V17.665H88.8382C89.2354 17.665 89.5753 17.7266 89.8592 17.8474C90.143 17.9694 90.3621 18.1453 90.5154 18.3774C90.6687 18.6083 90.7453 18.8846 90.7453 19.2074C90.7453 19.5257 90.6687 19.7988 90.5154 20.0276C90.3621 20.2564 90.143 20.4345 89.8592 20.5597C89.5753 20.686 89.2354 20.7486 88.8382 20.7486H87.461L87.8258 20.3773V21.9995H86.9937ZM87.8258 20.4647L87.461 20.0686H88.7993C89.1663 20.0686 89.4426 19.9931 89.6282 19.8431C89.8139 19.692 89.9067 19.4804 89.9067 19.2084C89.9067 18.9365 89.8139 18.7249 89.6282 18.5738C89.4426 18.4227 89.1663 18.3482 88.7993 18.3482H87.461L87.8258 17.9521V20.4647Z" fill="black"/>
<path d="M93.6787 22.062C93.3333 22.062 93.0117 22.0059 92.7149 21.8947C92.4181 21.7835 92.1612 21.626 91.9432 21.4241C91.7251 21.2223 91.5568 20.9859 91.437 20.715C91.3172 20.4452 91.2578 20.1506 91.2578 19.8332C91.2578 19.5116 91.3172 19.2148 91.437 18.945C91.5568 18.6752 91.7251 18.4399 91.9432 18.2391C92.1612 18.0394 92.417 17.883 92.7116 17.7718C93.0063 17.6606 93.3279 17.6045 93.6787 17.6045C94.0241 17.6045 94.3446 17.6595 94.6392 17.7685C94.9339 17.8776 95.1886 18.033 95.4045 18.2326C95.6203 18.4334 95.7876 18.6687 95.9074 18.9417C96.0272 19.2137 96.0866 19.5116 96.0866 19.8332C96.0866 20.1549 96.0272 20.4517 95.9074 20.7215C95.7876 20.9924 95.6203 21.2288 95.4045 21.4306C95.1886 21.6324 94.9339 21.7889 94.6392 21.8979C94.3446 22.0069 94.0241 22.062 93.6787 22.062ZM93.6787 21.3561C93.9053 21.3561 94.1125 21.3194 94.3025 21.245C94.4925 21.1705 94.6576 21.0658 94.799 20.9287C94.9393 20.7927 95.0494 20.6319 95.1282 20.4463C95.207 20.2606 95.2469 20.0567 95.2469 19.8332C95.2469 19.6098 95.208 19.4058 95.1314 19.2202C95.0548 19.0346 94.9447 18.8737 94.8011 18.7378C94.6576 18.6018 94.4914 18.496 94.3014 18.4215C94.1115 18.347 93.9032 18.3104 93.6776 18.3104C93.4509 18.3104 93.2416 18.347 93.0473 18.4215C92.853 18.496 92.6857 18.6018 92.5443 18.741C92.403 18.8802 92.2929 19.04 92.2119 19.2234C92.131 19.4069 92.0899 19.6098 92.0899 19.8332C92.0899 20.0523 92.131 20.2542 92.2119 20.4398C92.2929 20.6254 92.404 20.7873 92.5443 20.9255C92.6846 21.0636 92.853 21.1705 93.0473 21.2439C93.2426 21.3184 93.452 21.3561 93.6787 21.3561Z" fill="black"/>
<path d="M97.0083 21.9995V17.665H97.6937L99.6526 20.8285H99.2942L101.228 17.665H101.907L101.92 21.9995H101.119V18.8609H101.286L99.6526 21.5106H99.2748L97.6095 18.8609H97.8081V21.9995H97.0083Z" fill="black"/>
<path d="M105.243 19.1329C105.781 19.1329 106.195 19.2484 106.485 19.4793C106.776 19.7103 106.922 20.0578 106.922 20.5198C106.922 21.0065 106.762 21.3757 106.441 21.625C106.121 21.8743 105.677 21.9995 105.109 21.9995H103.175V17.665H104.001V19.1329H105.243ZM105.069 21.3811C105.39 21.3811 105.638 21.3087 105.815 21.1641C105.992 21.0195 106.081 20.809 106.081 20.5327C106.081 20.2607 105.993 20.0622 105.818 19.938C105.644 19.8139 105.393 19.7524 105.069 19.7524H104V21.3811H105.069ZM107.56 21.9995V17.665H108.386V21.9995H107.56Z" fill="black"/>
<path d="M112.305 21.3184L112.12 21.5169V17.666H112.939V21.5169L112.74 21.3184H114.782L114.577 21.5169V17.666H115.403V22.0005H109.641V17.666H110.466V21.5169L110.274 21.3184H112.305Z" fill="black"/>
<path d="M116.589 22.0555C116.516 22.0555 116.442 22.0512 116.368 22.0426C116.293 22.0339 116.213 22.0199 116.128 21.9994L116.185 21.2935C116.244 21.3097 116.309 21.3184 116.377 21.3184C116.561 21.3184 116.705 21.2482 116.809 21.1079C116.914 20.9676 116.989 20.7593 117.037 20.483C117.083 20.2067 117.115 19.8635 117.133 19.4555L117.196 17.666H120.494V22.0005H119.668V18.1495L119.867 18.3481H117.734L117.913 18.1441L117.868 19.4317C117.85 19.857 117.818 20.2326 117.772 20.5585C117.724 20.8845 117.654 21.1597 117.56 21.3853C117.466 21.6098 117.34 21.7781 117.182 21.8904C117.027 21.9994 116.828 22.0555 116.589 22.0555Z" fill="black"/>
<path d="M122.589 21.3185H125.118V21.9995H121.756V17.665H125.028V18.3461H122.589V21.3185ZM122.525 19.4675H124.754V20.1302H122.525V19.4675Z" fill="black"/>
<path d="M126.879 21.9995H126.047V17.665H126.879V21.9995ZM129.261 20.142H126.815V19.4545H129.261V20.142ZM129.197 17.6661H130.023V22.0006H129.197V17.6661Z" fill="black"/>
<path d="M132.117 21.9995H131.285V17.665H132.117V21.9995ZM134.499 20.142H132.053V19.4545H134.499V20.142ZM134.435 17.6661H135.261V22.0006H134.435V17.6661Z" fill="black"/>
<path d="M138.603 22.062C138.258 22.062 137.936 22.0059 137.64 21.8947C137.343 21.7835 137.086 21.626 136.868 21.4241C136.65 21.2223 136.482 20.9859 136.362 20.715C136.242 20.4452 136.183 20.1506 136.183 19.8332C136.183 19.5116 136.242 19.2148 136.362 18.945C136.482 18.6752 136.65 18.4399 136.868 18.2391C137.086 18.0394 137.342 17.883 137.636 17.7718C137.931 17.6606 138.253 17.6045 138.603 17.6045C138.949 17.6045 139.269 17.6595 139.564 17.7685C139.859 17.8776 140.113 18.033 140.329 18.2326C140.545 18.4334 140.712 18.6687 140.832 18.9417C140.952 19.2137 141.011 19.5116 141.011 19.8332C141.011 20.1549 140.952 20.4517 140.832 20.7215C140.712 20.9924 140.545 21.2288 140.329 21.4306C140.113 21.6324 139.859 21.7889 139.564 21.8979C139.269 22.0069 138.95 22.062 138.603 22.062ZM138.603 21.3561C138.83 21.3561 139.037 21.3194 139.227 21.245C139.417 21.1705 139.582 21.0658 139.724 20.9287C139.864 20.7927 139.974 20.6319 140.053 20.4463C140.132 20.2606 140.172 20.0567 140.172 19.8332C140.172 19.6098 140.133 19.4058 140.056 19.2202C139.98 19.0346 139.87 18.8737 139.726 18.7378C139.582 18.6018 139.416 18.496 139.226 18.4215C139.036 18.347 138.828 18.3104 138.602 18.3104C138.376 18.3104 138.166 18.347 137.972 18.4215C137.778 18.496 137.611 18.6018 137.469 18.741C137.328 18.8802 137.218 19.04 137.137 19.2234C137.056 19.4069 137.015 19.6098 137.015 19.8332C137.015 20.0523 137.056 20.2542 137.137 20.4398C137.218 20.6254 137.329 20.7873 137.469 20.9255C137.609 21.0636 137.778 21.1705 137.972 21.2439C138.167 21.3184 138.378 21.3561 138.603 21.3561Z" fill="black"/>
<path d="M142.765 21.3185H145.294V21.9995H141.932V17.665H145.205V18.3461H142.765V21.3185ZM142.702 19.4675H144.93V20.1302H142.702V19.4675Z" fill="black"/>
<path d="M83.8432 29.4919C83.4978 29.4919 83.1762 29.4358 82.8794 29.3246C82.5826 29.2135 82.3257 29.0559 82.1077 28.8541C81.8897 28.6522 81.7213 28.4159 81.6015 28.145C81.4817 27.8751 81.4224 27.5805 81.4224 27.2632C81.4224 26.9415 81.4817 26.6447 81.6015 26.3749C81.7213 26.1051 81.8897 25.8698 82.1077 25.6691C82.3257 25.4694 82.5815 25.3129 82.8762 25.2017C83.1708 25.0905 83.4925 25.0344 83.8432 25.0344C84.1886 25.0344 84.5092 25.0895 84.8038 25.1985C85.0984 25.3075 85.3532 25.4629 85.569 25.6626C85.7849 25.8633 85.9522 26.0986 86.072 26.3717C86.1918 26.6437 86.2511 26.9415 86.2511 27.2632C86.2511 27.5848 86.1918 27.8816 86.072 28.1514C85.9522 28.4223 85.7849 28.6587 85.569 28.8605C85.3532 29.0624 85.0984 29.2189 84.8038 29.3279C84.5092 29.4369 84.1897 29.4919 83.8432 29.4919ZM83.8432 28.7861C84.0699 28.7861 84.2771 28.7494 84.4671 28.6749C84.657 28.6004 84.8221 28.4957 84.9635 28.3587C85.1049 28.2227 85.2139 28.0619 85.2938 27.8762C85.3726 27.6906 85.4125 27.4866 85.4125 27.2632C85.4125 27.0398 85.3737 26.8358 85.297 26.6501C85.2204 26.4645 85.1103 26.3037 84.9668 26.1677C84.8232 26.0317 84.657 25.9259 84.4671 25.8515C84.2771 25.777 84.0688 25.7403 83.8432 25.7403C83.6166 25.7403 83.4072 25.777 83.2129 25.8515C83.0186 25.9259 82.8514 26.0317 82.71 26.1698C82.5686 26.308 82.4585 26.4688 82.3775 26.6523C82.2966 26.8358 82.2556 27.0398 82.2556 27.2621C82.2556 27.4812 82.2966 27.683 82.3775 27.8687C82.4585 28.0543 82.5697 28.2162 82.71 28.3543C82.8503 28.4925 83.0186 28.5993 83.2129 28.6727C83.4072 28.7483 83.6177 28.7861 83.8432 28.7861Z" fill="black"/>
<path d="M87.1729 29.4304V25.0959H90.6687V25.7651H87.9985V26.8239H89.3239C89.8614 26.8239 90.2704 26.9318 90.55 27.1455C90.8295 27.3603 90.9698 27.6744 90.9698 28.0867C90.9698 28.5119 90.8144 28.8422 90.5057 29.0775C90.196 29.3128 89.7599 29.4304 89.1965 29.4304H87.1729ZM87.9996 28.8109H89.1523C89.4728 28.8109 89.7157 28.7515 89.8819 28.6317C90.0481 28.5119 90.1312 28.3392 90.1312 28.1115C90.1312 27.6658 89.8042 27.4423 89.1512 27.4423H87.9985V28.8109H87.9996Z" fill="black"/>
<path d="M93.9604 29.4919C93.615 29.4919 93.2934 29.4358 92.9966 29.3246C92.6998 29.2135 92.4429 29.0559 92.2249 28.8541C92.0069 28.6522 91.8385 28.4159 91.7187 28.145C91.5989 27.8751 91.5396 27.5805 91.5396 27.2632C91.5396 26.9415 91.5989 26.6447 91.7187 26.3749C91.8385 26.1051 92.0069 25.8698 92.2249 25.6691C92.4429 25.4694 92.6987 25.3129 92.9934 25.2017C93.288 25.0905 93.6096 25.0344 93.9604 25.0344C94.3058 25.0344 94.6263 25.0895 94.921 25.1985C95.2156 25.3075 95.4704 25.4629 95.6862 25.6626C95.9021 25.8633 96.0694 26.0986 96.1892 26.3717C96.309 26.6437 96.3683 26.9415 96.3683 27.2632C96.3683 27.5848 96.309 27.8816 96.1892 28.1514C96.0694 28.4223 95.9021 28.6587 95.6862 28.8605C95.4704 29.0624 95.2156 29.2189 94.921 29.3279C94.6263 29.4369 94.3058 29.4919 93.9604 29.4919ZM93.9604 28.7861C94.1871 28.7861 94.3943 28.7494 94.5843 28.6749C94.7742 28.6004 94.9393 28.4957 95.0807 28.3587C95.221 28.2227 95.3311 28.0619 95.4099 27.8762C95.4887 27.6906 95.5286 27.4866 95.5286 27.2632C95.5286 27.0398 95.4898 26.8358 95.4131 26.6501C95.3365 26.4645 95.2264 26.3037 95.0829 26.1677C94.9393 26.0317 94.7731 25.9259 94.5832 25.8515C94.3932 25.777 94.1849 25.7403 93.9593 25.7403C93.7327 25.7403 93.5233 25.777 93.329 25.8515C93.1348 25.9259 92.9675 26.0317 92.8261 26.1698C92.6847 26.308 92.5746 26.4688 92.4937 26.6523C92.4127 26.8358 92.3717 27.0398 92.3717 27.2621C92.3717 27.4812 92.4127 27.683 92.4937 27.8687C92.5746 28.0543 92.6858 28.2162 92.8261 28.3543C92.9664 28.4925 93.1348 28.5993 93.329 28.6727C93.5233 28.7483 93.7338 28.7861 93.9604 28.7861Z" fill="black"/>
<path d="M97.29 29.4304V25.0959H99.1346C99.5317 25.0959 99.8717 25.1564 100.156 25.2783C100.439 25.4003 100.659 25.5762 100.812 25.8083C100.965 26.0403 101.043 26.3156 101.043 26.6383C101.043 26.9567 100.966 27.2297 100.812 27.4585C100.659 27.6873 100.439 27.8654 100.156 27.9906C99.8717 28.1169 99.5317 28.1795 99.1346 28.1795H97.7585L98.1233 27.8082V29.4304H97.29ZM98.1222 27.8946L97.7574 27.4985H99.0957C99.4627 27.4985 99.739 27.4229 99.9246 27.2729C100.11 27.1218 100.203 26.9102 100.203 26.6383C100.203 26.3663 100.11 26.1547 99.9246 26.0036C99.739 25.8525 99.4627 25.7781 99.0957 25.7781H97.7574L98.1222 25.382V27.8946Z" fill="black"/>
<path d="M103.334 28.7179L101.35 25.0958H102.234L103.803 28.093L103.334 28.7179ZM101.965 28.7481C102.199 28.8269 102.406 28.8474 102.585 28.8097C102.765 28.773 102.922 28.6467 103.059 28.4319L103.277 28.1038L103.36 28.0175L104.923 25.0947H105.742L103.795 28.5927C103.638 28.882 103.451 29.1032 103.235 29.2587C103.019 29.413 102.785 29.4993 102.53 29.5155C102.277 29.5317 102.017 29.4864 101.752 29.3795L101.965 28.7481Z" fill="black"/>
<path d="M105.877 30.352L105.883 28.7481H110.859V30.352H110.091V29.4292H106.652V30.352H105.877ZM109.392 29.0579V25.7768H107.637L107.605 26.5442C107.596 26.8335 107.578 27.1065 107.551 27.3645C107.523 27.6224 107.486 27.8566 107.439 28.0671C107.391 28.2776 107.325 28.4535 107.24 28.5938C107.155 28.7341 107.05 28.8269 106.926 28.8723L106.029 28.7481C106.191 28.7525 106.325 28.6974 106.43 28.5841C106.534 28.4708 106.616 28.311 106.676 28.1038C106.735 27.8977 106.78 27.6548 106.811 27.3764C106.841 27.0979 106.861 26.7935 106.874 26.4633L106.925 25.0947H110.21V29.0568H109.392V29.0579Z" fill="black"/>
<path d="M113.72 29.4919C113.375 29.4919 113.053 29.4358 112.756 29.3246C112.46 29.2135 112.203 29.0559 111.985 28.8541C111.767 28.6522 111.598 28.4159 111.478 28.145C111.359 27.8751 111.299 27.5805 111.299 27.2632C111.299 26.9415 111.359 26.6447 111.478 26.3749C111.598 26.1051 111.767 25.8698 111.985 25.6691C112.203 25.4694 112.458 25.3129 112.753 25.2017C113.048 25.0905 113.369 25.0344 113.72 25.0344C114.066 25.0344 114.386 25.0895 114.681 25.1985C114.975 25.3075 115.23 25.4629 115.446 25.6626C115.662 25.8633 115.829 26.0986 115.949 26.3717C116.069 26.6437 116.128 26.9415 116.128 27.2632C116.128 27.5848 116.069 27.8816 115.949 28.1514C115.829 28.4223 115.662 28.6587 115.446 28.8605C115.23 29.0624 114.975 29.2189 114.681 29.3279C114.386 29.4369 114.067 29.4919 113.72 29.4919ZM113.72 28.7861C113.947 28.7861 114.154 28.7494 114.344 28.6749C114.534 28.6004 114.699 28.4957 114.84 28.3587C114.981 28.2227 115.091 28.0619 115.17 27.8762C115.248 27.6906 115.288 27.4866 115.288 27.2632C115.288 27.0398 115.25 26.8358 115.173 26.6501C115.096 26.4645 114.986 26.3037 114.843 26.1677C114.699 26.0317 114.533 25.9259 114.343 25.8515C114.153 25.777 113.945 25.7403 113.719 25.7403C113.492 25.7403 113.283 25.777 113.089 25.8515C112.895 25.9259 112.727 26.0317 112.586 26.1698C112.444 26.308 112.334 26.4688 112.253 26.6523C112.172 26.8358 112.131 27.0398 112.131 27.2621C112.131 27.4812 112.172 27.683 112.253 27.8687C112.334 28.0543 112.446 28.2162 112.586 28.3543C112.726 28.4925 112.895 28.5993 113.089 28.6727C113.284 28.7483 113.495 28.7861 113.72 28.7861Z" fill="black"/>
<path d="M117.05 29.4304V25.0959H119.054C119.562 25.0959 119.957 25.192 120.239 25.3841C120.521 25.5762 120.662 25.8536 120.662 26.2173C120.662 26.5681 120.528 26.8401 120.262 27.0311C119.995 27.2232 119.637 27.3193 119.189 27.3193L119.311 27.1024C119.811 27.1024 120.197 27.1973 120.47 27.3873C120.743 27.5773 120.88 27.8557 120.88 28.2238C120.88 28.6037 120.737 28.8994 120.452 29.112C120.166 29.3246 119.74 29.4304 119.177 29.4304H117.05ZM117.877 26.9405H118.99C119.259 26.9405 119.464 26.8887 119.606 26.7861C119.746 26.6825 119.817 26.5303 119.817 26.3274C119.817 26.1256 119.747 25.9723 119.606 25.8687C119.464 25.7651 119.26 25.7144 118.99 25.7144H117.877V26.9405ZM117.877 28.8109H119.151C119.446 28.8109 119.667 28.758 119.814 28.6533C119.961 28.5475 120.035 28.3835 120.035 28.1611C120.035 27.9507 119.962 27.7931 119.814 27.6873C119.667 27.5816 119.446 27.5298 119.151 27.5298H117.877V28.8109Z" fill="black"/>
<path d="M121.257 29.4304L123.274 25.0959H124.093L126.117 29.4304H125.239L123.51 25.5233H123.844L122.108 29.4304H121.257ZM122.185 28.4267L122.416 27.7953H124.83L125.055 28.4267H122.185Z" fill="black"/>
<path d="M127.634 29.4304H126.802V25.0959H127.634V29.4304ZM130.016 27.5729H127.571V26.8854H130.016V27.5729ZM129.953 25.0959H130.778V29.4304H129.953V25.0959Z" fill="black"/>
<path d="M132.04 29.4304V25.0959H132.866V28.173L135.274 25.0959H136.049V29.4304H135.223V26.3598L132.821 29.4304H132.04Z" fill="black"/>
<path d="M138.136 28.7481H140.665V29.4292H137.303V25.0947H140.575V25.7758H138.136V28.7481ZM138.072 26.8972H140.301V27.5598H138.072V26.8972Z" fill="black"/>
<path d="M69.1721 29.8836H0V0H69.1721V29.8836ZM1.10952 28.773H68.0604V1.1106H1.10952V28.773Z" fill="black"/>
<path d="M125.787 8.494L127.535 5.53348L131.405 12.0276H134.203L128.91 3.25293H126.231L120.934 12.0276L123.699 12.0265L124.633 10.4454L125.787 8.494Z" fill="black"/>
<path d="M140.324 8.494L142.073 5.53348L145.944 12.0276H148.741L143.448 3.25293H140.769L135.472 12.0276L138.237 12.0265L139.171 10.4454L140.324 8.494Z" fill="black"/>
<path d="M89.7822 5.20527C89.8081 5.20527 89.8383 5.20527 89.8642 5.20851C90.2625 5.22146 90.596 5.32076 90.8528 5.54849C91.1248 5.77622 91.2662 6.09785 91.2651 6.50691V8.73241C91.2651 9.12744 91.1237 9.44583 90.8442 9.68436C90.5765 9.91856 90.2268 10.0394 89.7843 10.0459H84.3296L84.3306 8.84466V8.66226L84.3328 6.70873L81.913 6.70981V8.84466L81.9109 12.0264H90.4017C91.4022 12.0264 92.202 11.735 92.7977 11.1414C93.3892 10.5586 93.6838 9.8851 93.6838 9.12744V6.15182C93.6838 5.80644 93.6277 5.48481 93.5133 5.18369C93.3687 4.79514 93.1302 4.44329 92.7988 4.12166C92.2192 3.54532 91.4184 3.25391 90.4028 3.25391H80.8877L82.8229 5.20851" fill="black"/>
<path d="M124.296 9.9715V8.46265H127.525L128.425 9.9715H124.296Z" fill="black"/>
<path d="M95.4009 3.25293H97.8412L97.8422 8.99695L104.154 3.25293H106.588L106.59 12.0287H104.156L104.155 6.30518L97.8433 12.0287H95.403L95.4009 3.25293Z" fill="black"/>
<path d="M118.905 7.89071C118.704 7.67593 118.473 7.52159 118.206 7.41797C118.277 7.32731 118.332 7.27011 118.38 7.25068C118.846 6.7909 119.077 6.24154 119.077 5.59504C119.077 4.95826 118.846 4.40782 118.374 3.94912C117.906 3.48286 117.302 3.25513 116.557 3.25513H108.309L110.261 5.2065H110.726H115.671C116.383 5.2065 116.556 5.70837 116.556 5.93718C116.556 6.16815 116.474 6.36998 116.303 6.54374C116.128 6.71427 115.915 6.71643 115.654 6.71643H112.163V6.71751H110.476L110.475 7.18053H110.48L110.479 8.4282H112.889H116.253C116.513 8.4282 116.73 8.51238 116.901 8.67643C117.076 8.8448 117.158 9.04555 117.158 9.27652C117.158 9.51073 117.076 9.71256 116.901 9.88633C116.729 10.0547 116.506 10.1378 116.234 10.1443H110.717H110.226C109.551 10.8264 108.305 12.0287 108.305 12.0287H117.023C117.796 12.0223 118.418 11.7837 118.903 11.3045C119.391 10.8113 119.629 10.2414 119.629 9.58088C119.631 8.92683 119.393 8.36344 118.905 7.89071Z" fill="black"/>
<path d="M172.773 3.25171H163.537L161.583 5.20632H165.795L165.794 12.0296H168.213L168.214 5.20632H170.819L172.773 3.25171Z" fill="black"/>
<path d="M152.444 10.0762H157.472C157.768 10.0762 158.375 10.0568 158.375 9.31747C158.375 8.56951 157.803 8.57707 157.435 8.57707H152.451V8.58031H150.01L150.009 2.93774H152.429V6.63002H157.663C158.827 6.63002 160.826 6.65484 160.826 9.39194C160.826 11.6768 158.896 12.0287 157.664 12.0287H150.013L151.964 10.0773L152.444 10.0762Z" fill="black"/>
<path d="M152.429 6.62891H150.012V12.0275H152.429V6.62891Z" fill="black"/>
</svg>
